<svg width="277" height="49" viewBox="0 0 277 49" version="1.1" xmlns="http://www.w3.org/2000/svg"
  xmlns:xlink="http://www.w3.org/1999/xlink">
  <g id="Page-1" stroke="none" stroke-width="1" fill="none" fill-rule="evenodd">
    <g id="Group" fill-rule="nonzero">
      <path
        d="M23.6167564,10.64 L23.6167564,24.24 L12.9197564,24.24 L12.9197564,34.845 L23.5457564,34.845 C33.7727564,34.845 34.2077564,24.925 34.2437564,24.24 L34.2437564,10.605 L45.5587564,10.605 L45.5587564,0 L34.2797564,0 C23.6897564,0 23.6167564,10.64 23.6167564,10.64"
        id="Path" fill="#BA2028"></path>
      <path
        d="M9.76375639,20.993 L20.2077564,20.993 L20.2077564,10.388 L9.79975639,10.388 C9.79975639,10.388 0.569756392,10.497 0.0357563918,20.312 C0.0227563918,20.547 0.00975639184,20.782 0.00775639184,21.028 L0.00775639184,37.657 C0.00775639184,37.657 -0.0222436082,38.154 0.0357563918,38.933 C0.247756392,41.74 1.62275639,48.213 9.79975639,48.297 L20.1717564,48.297 L20.1717564,37.693 L9.76375639,37.693 L9.76375639,20.993 Z"
        id="Path" fill="#2A2941" class="logo__path"></path>
    </g>
  </g>
</svg>