<svg width="10" height="10" viewBox="0 0 10 10" fill="none" xmlns="http://www.w3.org/2000/svg">
<g id="basic/link_02">
<path id="Icon" d="M3.52697 8.55627C2.6844 8.55627 1.92479 8.04872 1.6023 7.27032C1.27981 6.49191 1.45794 5.59588 2.05364 5.00001L2.9378 4.11584L3.52697 4.70501L2.64322 5.58876C2.32741 5.90457 2.20407 6.36487 2.31967 6.79627C2.43526 7.22767 2.77223 7.56463 3.20363 7.68023C3.63503 7.79582 4.09533 7.67248 4.41114 7.35668L5.29489 6.47293L5.88405 7.06251L5.0003 7.94626C4.61033 8.33815 4.07983 8.55779 3.52697 8.55627ZM3.82155 6.76751L3.23239 6.17834L6.17864 3.23209L6.7678 3.82126L3.82197 6.76709L3.82155 6.76751ZM7.0628 5.88376L6.47322 5.29459L7.35697 4.41084C7.67708 4.09598 7.80372 3.63362 7.68874 3.19958C7.57375 2.76555 7.23481 2.42653 6.80081 2.31144C6.3668 2.19636 5.90441 2.32289 5.58947 2.64293L4.7053 3.52668L4.11614 2.93751L5.0003 2.05334C5.81492 1.24583 7.12904 1.24871 7.94012 2.05978C8.75119 2.87085 8.75407 4.18497 7.94655 4.99959L7.0628 5.88334V5.88376Z" fill="#E2E6EE"/>
</g>
</svg>
