<svg width="10" height="11" viewBox="0 0 10 11" fill="none" xmlns="http://www.w3.org/2000/svg">
<g id="basic/location">
<path id="Icon" d="M4.99992 9.25002C4.47364 8.80112 3.98583 8.30899 3.54159 7.77877C2.87492 6.98252 2.08325 5.79669 2.08325 4.66669C2.08266 3.4865 2.79336 2.42227 3.8837 1.9706C4.97404 1.51894 6.22911 1.76887 7.06325 2.60377C7.61178 3.14986 7.91905 3.89268 7.9166 4.66669C7.9166 5.79669 7.12492 6.98252 6.45825 7.77877C6.01401 8.30899 5.5262 8.80112 4.99992 9.25002ZM4.99992 3.41669C4.55334 3.41669 4.14068 3.65494 3.91739 4.04169C3.6941 4.42844 3.6941 4.90494 3.91739 5.29169C4.14068 5.67844 4.55334 5.91669 4.99992 5.91669C5.69028 5.91669 6.24992 5.35704 6.24992 4.66669C6.24992 3.97633 5.69028 3.41669 4.99992 3.41669Z" fill="#E2E6EE"/>
</g>
</svg>
