<svg width="10" height="10" viewBox="0 0 10 10" fill="none" xmlns="http://www.w3.org/2000/svg">
<g id="basic/phone">
<path id="Icon" d="M7.9157 8.33335C4.36086 8.33839 1.66295 5.60814 1.66675 2.0844C1.66675 1.85428 1.8533 1.66669 2.08342 1.66669H3.18315C3.38964 1.66669 3.56505 1.81841 3.59537 2.02266C3.66804 2.51219 3.81057 2.98876 4.01862 3.43781L4.06143 3.53023C4.12097 3.65873 4.08061 3.81141 3.96536 3.89372C3.62479 4.13693 3.49463 4.6265 3.75995 5.0085C4.09291 5.48787 4.5126 5.90748 4.99186 6.24028C5.37384 6.50553 5.86333 6.37539 6.10654 6.03487C6.1889 5.91956 6.34167 5.87919 6.47025 5.93875L6.56224 5.98136C7.01133 6.18939 7.48793 6.33193 7.97751 6.40458C8.18177 6.4349 8.33341 6.6103 8.33341 6.8168V7.91668C8.33341 8.1468 8.14641 8.33335 7.91629 8.33334L7.9157 8.33335Z" fill="#E2E6EE"/>
</g>
</svg>
